<svg xmlns="http://www.w3.org/2000/svg" xmlns:xlink="http://www.w3.org/1999/xlink" width="3000" zoomAndPan="magnify" viewBox="0 0 2250 299.999988" height="400" preserveAspectRatio="xMidYMid meet" version="1.0"><defs><g/><clipPath id="77c0f4d5ec"><rect x="0" width="2192" y="0" height="214"/></clipPath></defs><g transform="matrix(1, 0, 0, 1, 51, 42)"><g clip-path="url(#77c0f4d5ec)"><g fill="#ffffff" fill-opacity="1"><g transform="translate(0.794253, 168.274624)"><g><path d="M 19.875 -122.046875 L 69.5625 -122.046875 C 82.46875 -122.046875 93.859375 -119.457031 103.734375 -114.28125 C 113.609375 -109.113281 121.273438 -101.90625 126.734375 -92.65625 C 132.203125 -83.414062 134.9375 -72.867188 134.9375 -61.015625 C 134.9375 -49.160156 132.203125 -38.613281 126.734375 -29.375 C 121.273438 -20.132812 113.609375 -12.925781 103.734375 -7.75 C 93.859375 -2.582031 82.46875 0 69.5625 0 L 19.875 0 Z M 68.859375 -11.15625 C 79.554688 -11.15625 88.914062 -13.273438 96.9375 -17.515625 C 104.957031 -21.765625 111.175781 -27.632812 115.59375 -35.125 C 120.007812 -42.625 122.21875 -51.253906 122.21875 -61.015625 C 122.21875 -70.785156 120.007812 -79.414062 115.59375 -86.90625 C 111.175781 -94.40625 104.957031 -100.273438 96.9375 -104.515625 C 88.914062 -108.753906 79.554688 -110.875 68.859375 -110.875 L 32.78125 -110.875 L 32.78125 -11.15625 Z M 68.859375 -11.15625 "/></g></g></g><g fill="#ffffff" fill-opacity="1"><g transform="translate(188.390036, 168.274624)"><g><path d="M 73.21875 1.046875 C 61.132812 1.046875 50.179688 -1.65625 40.359375 -7.0625 C 30.535156 -12.46875 22.863281 -19.875 17.34375 -29.28125 C 11.820312 -38.695312 9.0625 -49.273438 9.0625 -61.015625 C 9.0625 -72.753906 11.820312 -83.332031 17.34375 -92.75 C 22.863281 -102.164062 30.535156 -109.578125 40.359375 -114.984375 C 50.179688 -120.390625 61.132812 -123.09375 73.21875 -123.09375 C 85.3125 -123.09375 96.207031 -120.414062 105.90625 -115.0625 C 115.613281 -109.71875 123.253906 -102.304688 128.828125 -92.828125 C 134.410156 -83.359375 137.203125 -72.753906 137.203125 -61.015625 C 137.203125 -49.273438 134.410156 -38.671875 128.828125 -29.203125 C 123.253906 -19.734375 115.613281 -12.320312 105.90625 -6.96875 C 96.207031 -1.625 85.3125 1.046875 73.21875 1.046875 Z M 73.21875 -10.453125 C 82.863281 -10.453125 91.582031 -12.628906 99.375 -16.984375 C 107.164062 -21.347656 113.269531 -27.394531 117.6875 -35.125 C 122.101562 -42.851562 124.3125 -51.484375 124.3125 -61.015625 C 124.3125 -70.546875 122.101562 -79.175781 117.6875 -86.90625 C 113.269531 -94.632812 107.164062 -100.675781 99.375 -105.03125 C 91.582031 -109.394531 82.863281 -111.578125 73.21875 -111.578125 C 63.570312 -111.578125 54.828125 -109.394531 46.984375 -105.03125 C 39.140625 -100.675781 32.976562 -94.632812 28.5 -86.90625 C 24.03125 -79.175781 21.796875 -70.546875 21.796875 -61.015625 C 21.796875 -51.484375 24.03125 -42.851562 28.5 -35.125 C 32.976562 -27.394531 39.140625 -21.347656 46.984375 -16.984375 C 54.828125 -12.628906 63.570312 -10.453125 73.21875 -10.453125 Z M 73.21875 -10.453125 "/></g></g></g><g fill="#ffffff" fill-opacity="1"><g transform="translate(378.252254, 168.274624)"><g><path d="M 121.859375 -122.046875 L 121.859375 0 L 111.234375 0 L 32.78125 -99.03125 L 32.78125 0 L 19.875 0 L 19.875 -122.046875 L 30.515625 -122.046875 L 109.140625 -23.015625 L 109.140625 -122.046875 Z M 121.859375 -122.046875 "/></g></g></g><g fill="#ffffff" fill-opacity="1"><g transform="translate(563.581603, 168.274624)"><g><path d="M 106.171875 -11.15625 L 106.171875 0 L 19.875 0 L 19.875 -122.046875 L 103.5625 -122.046875 L 103.5625 -110.875 L 32.78125 -110.875 L 32.78125 -67.46875 L 95.890625 -67.46875 L 95.890625 -56.484375 L 32.78125 -56.484375 L 32.78125 -11.15625 Z M 106.171875 -11.15625 "/></g></g></g><g fill="#ffffff" fill-opacity="1"><g transform="translate(723.108091, 168.274624)"><g><path d="M 73.21875 1.046875 C 61.132812 1.046875 50.179688 -1.65625 40.359375 -7.0625 C 30.535156 -12.46875 22.863281 -19.875 17.34375 -29.28125 C 11.820312 -38.695312 9.0625 -49.273438 9.0625 -61.015625 C 9.0625 -72.753906 11.820312 -83.332031 17.34375 -92.75 C 22.863281 -102.164062 30.535156 -109.578125 40.359375 -114.984375 C 50.179688 -120.390625 61.132812 -123.09375 73.21875 -123.09375 C 85.3125 -123.09375 96.207031 -120.414062 105.90625 -115.0625 C 115.613281 -109.71875 123.253906 -102.304688 128.828125 -92.828125 C 134.410156 -83.359375 137.203125 -72.753906 137.203125 -61.015625 C 137.203125 -49.273438 134.410156 -38.671875 128.828125 -29.203125 C 123.253906 -19.734375 115.613281 -12.320312 105.90625 -6.96875 C 96.207031 -1.625 85.3125 1.046875 73.21875 1.046875 Z M 73.21875 -10.453125 C 82.863281 -10.453125 91.582031 -12.628906 99.375 -16.984375 C 107.164062 -21.347656 113.269531 -27.394531 117.6875 -35.125 C 122.101562 -42.851562 124.3125 -51.484375 124.3125 -61.015625 C 124.3125 -70.546875 122.101562 -79.175781 117.6875 -86.90625 C 113.269531 -94.632812 107.164062 -100.675781 99.375 -105.03125 C 91.582031 -109.394531 82.863281 -111.578125 73.21875 -111.578125 C 63.570312 -111.578125 54.828125 -109.394531 46.984375 -105.03125 C 39.140625 -100.675781 32.976562 -94.632812 28.5 -86.90625 C 24.03125 -79.175781 21.796875 -70.546875 21.796875 -61.015625 C 21.796875 -51.484375 24.03125 -42.851562 28.5 -35.125 C 32.976562 -27.394531 39.140625 -21.347656 46.984375 -16.984375 C 54.828125 -12.628906 63.570312 -10.453125 73.21875 -10.453125 Z M 73.21875 -10.453125 "/></g></g></g><g fill="#ffffff" fill-opacity="1"><g transform="translate(909.309021, 168.274624)"><g><path d="M 121.34375 -122.046875 L 67.296875 0 L 54.5625 0 L 0.515625 -122.046875 L 14.46875 -122.046875 L 61.1875 -16.046875 L 108.265625 -122.046875 Z M 121.34375 -122.046875 "/></g></g></g><g fill="#ffffff" fill-opacity="1"><g transform="translate(1071.973651, 168.274624)"><g><path d="M 106.171875 -11.15625 L 106.171875 0 L 19.875 0 L 19.875 -122.046875 L 103.5625 -122.046875 L 103.5625 -110.875 L 32.78125 -110.875 L 32.78125 -67.46875 L 95.890625 -67.46875 L 95.890625 -56.484375 L 32.78125 -56.484375 L 32.78125 -11.15625 Z M 106.171875 -11.15625 "/></g></g></g><g fill="#ffffff" fill-opacity="1"><g transform="translate(1232.197629, 168.274624)"><g><path d="M 103.21875 0 L 75.3125 -39.234375 C 72.175781 -38.878906 68.921875 -38.703125 65.546875 -38.703125 L 32.78125 -38.703125 L 32.78125 0 L 19.875 0 L 19.875 -122.046875 L 65.546875 -122.046875 C 81.128906 -122.046875 93.335938 -118.320312 102.171875 -110.875 C 111.003906 -103.4375 115.421875 -93.210938 115.421875 -80.203125 C 115.421875 -70.671875 113.003906 -62.617188 108.171875 -56.046875 C 103.347656 -49.484375 96.460938 -44.75 87.515625 -41.84375 L 117.328125 0 Z M 65.203125 -49.6875 C 77.296875 -49.6875 86.535156 -52.359375 92.921875 -57.703125 C 99.316406 -63.054688 102.515625 -70.554688 102.515625 -80.203125 C 102.515625 -90.078125 99.316406 -97.65625 92.921875 -102.9375 C 86.535156 -108.226562 77.296875 -110.875 65.203125 -110.875 L 32.78125 -110.875 L 32.78125 -49.6875 Z M 65.203125 -49.6875 "/></g></g></g><g fill="#ffffff" fill-opacity="1"><g transform="translate(1401.836029, 168.274624)"><g><path d="M 121.859375 -122.046875 L 121.859375 0 L 111.234375 0 L 32.78125 -99.03125 L 32.78125 0 L 19.875 0 L 19.875 -122.046875 L 30.515625 -122.046875 L 109.140625 -23.015625 L 109.140625 -122.046875 Z M 121.859375 -122.046875 "/></g></g></g><g fill="#ffffff" fill-opacity="1"><g transform="translate(1587.165377, 168.274624)"><g><path d="M 19.875 -122.046875 L 32.78125 -122.046875 L 32.78125 0 L 19.875 0 Z M 19.875 -122.046875 "/></g></g></g><g fill="#ffffff" fill-opacity="1"><g transform="translate(1683.405291, 168.274624)"><g><path d="M 105.828125 -61.015625 L 118.203125 -61.015625 L 118.203125 -14.46875 C 112.503906 -9.46875 105.757812 -5.628906 97.96875 -2.953125 C 90.1875 -0.285156 82 1.046875 73.40625 1.046875 C 61.195312 1.046875 50.207031 -1.625 40.4375 -6.96875 C 30.675781 -12.320312 23.003906 -19.734375 17.421875 -29.203125 C 11.847656 -38.671875 9.0625 -49.273438 9.0625 -61.015625 C 9.0625 -72.753906 11.847656 -83.359375 17.421875 -92.828125 C 23.003906 -102.304688 30.675781 -109.71875 40.4375 -115.0625 C 50.207031 -120.414062 61.253906 -123.09375 73.578125 -123.09375 C 82.867188 -123.09375 91.40625 -121.609375 99.1875 -118.640625 C 106.976562 -115.671875 113.550781 -111.285156 118.90625 -105.484375 L 110.875 -97.28125 C 101.226562 -106.8125 88.96875 -111.578125 74.09375 -111.578125 C 64.21875 -111.578125 55.296875 -109.394531 47.328125 -105.03125 C 39.367188 -100.675781 33.125 -94.632812 28.59375 -86.90625 C 24.0625 -79.175781 21.796875 -70.546875 21.796875 -61.015625 C 21.796875 -51.484375 24.0625 -42.878906 28.59375 -35.203125 C 33.125 -27.535156 39.34375 -21.492188 47.25 -17.078125 C 55.15625 -12.660156 64.046875 -10.453125 73.921875 -10.453125 C 86.472656 -10.453125 97.109375 -13.59375 105.828125 -19.875 Z M 105.828125 -61.015625 "/></g></g></g><g fill="#ffffff" fill-opacity="1"><g transform="translate(1861.760995, 168.274624)"><g><path d="M 121.859375 -122.046875 L 121.859375 0 L 109.140625 0 L 109.140625 -56.3125 L 32.78125 -56.3125 L 32.78125 0 L 19.875 0 L 19.875 -122.046875 L 32.78125 -122.046875 L 32.78125 -67.640625 L 109.140625 -67.640625 L 109.140625 -122.046875 Z M 121.859375 -122.046875 "/></g></g></g><g fill="#ffffff" fill-opacity="1"><g transform="translate(2047.090219, 168.274624)"><g><path d="M 43.59375 -110.875 L 0.703125 -110.875 L 0.703125 -122.046875 L 99.375 -122.046875 L 99.375 -110.875 L 56.484375 -110.875 L 56.484375 0 L 43.59375 0 Z M 43.59375 -110.875 "/></g></g></g></g></g></svg>